<svg xmlns="http://www.w3.org/2000/svg" viewBox="0 0 32 32" role="img" aria-hidden="true">
  <path
    d="M16 5C10.2 5 5.5 9.5 5.5 15.1c0 2.2.7 4.2 2 5.8L5.7 26l5.3-1.6c1.5.9 3.2 1.4 5 1.4 5.8 0 10.5-4.5 10.5-10.1S21.8 5 16 5Z"
    fill="none"
    stroke="#25D366"
    stroke-width="2"
    stroke-linecap="round"
    stroke-linejoin="round"
  />
  <path
    d="M12.4 11.7c.3-.4.9-.5 1.3-.2l1.1.8c.4.3.6.9.3 1.3l-.3.6c-.2.4-.1.8.2 1.1a11.7 11.7 0 0 0 3.6 2.8c.3.2.8.1 1.1-.1l.6-.4c.4-.3 1-.2 1.3.2l.9 1.1c.3.4.3 1-.1 1.4l-.4.4c-.7.7-1.6 1-2.6.8a12.2 12.2 0 0 1-5-2.6 13.7 13.7 0 0 1-3.7-4.3 8 8 0 0 1-.9-3.5c0-.6.2-1.2.6-1.7z"
    fill="#25D366"
  />
</svg>
